<svg width="58" height="58" xmlns="http://www.w3.org/2000/svg" xmlns:xlink="http://www.w3.org/1999/xlink" xml:space="preserve" overflow="hidden"><g transform="translate(-185 -534)"><path d="M221.448 570.388C217.074 574.766 212.369 578.8 207.375 582.454 218.103 586.124 229.775 580.402 233.444 569.674 234.914 565.377 234.917 560.714 233.454 556.415 229.841 561.393 225.825 566.066 221.448 570.388ZM229.742 571.986C229.404 572.185 229.063 572.395 228.715 572.635 226.456 574.18 225.039 575.864 223.398 577.814 223.042 578.237 222.666 578.681 222.273 579.136 221.067 579.76 219.793 580.244 218.477 580.581 219.92 579.127 221.018 577.826 222.009 576.649 223.735 574.595 225.227 572.826 227.688 571.141 228.728 570.427 229.835 569.817 230.995 569.32 230.65 570.242 230.232 571.133 229.742 571.986Z" fill="#FFFFFF"/><path d="M219.74 568.679 219.772 568.646C220.349 568.069 220.916 567.491 221.474 566.91 221.543 566.838 221.614 566.766 221.683 566.693 222.229 566.124 222.765 565.555 223.29 564.985 223.366 564.903 223.443 564.822 223.518 564.739 224.047 564.163 224.565 563.589 225.073 563.017 225.126 562.956 225.179 562.896 225.232 562.836 225.762 562.236 226.279 561.638 226.782 561.043L226.793 561.03C228.386 559.145 229.838 557.297 231.118 555.523L231.118 555.523C231.935 554.391 232.685 553.287 233.353 552.229 236.847 546.681 237.724 542.974 235.96 541.211 234.036 539.286 229.828 540.489 223.453 544.787 213.398 539.558 201.007 543.47 195.777 553.526 192.687 559.469 192.691 566.546 195.789 572.485 191.544 578.8 190.354 582.979 192.271 584.897 192.924 585.505 193.797 585.822 194.688 585.772 200.072 585.772 210.623 577.737 219.455 568.957ZM234.25 542.92C234.609 543.282 234.782 545.422 231.307 550.942 231.199 551.114 231.084 551.289 230.972 551.464 229.56 549.401 227.787 547.61 225.738 546.178 231.565 542.411 233.855 542.525 234.25 542.92ZM227.496 550.928C228.246 551.767 228.916 552.673 229.498 553.635 229.372 553.812 229.243 553.991 229.113 554.17 227.181 555.055 225.186 555.797 223.146 556.392 220.85 557.105 218.869 557.721 216.57 559.292 214.367 560.798 212.507 562.754 210.353 565.018 207.183 568.476 203.73 571.662 200.028 574.543 199.255 573.606 198.578 572.594 198.007 571.522 201.49 568.795 204.741 565.784 207.726 562.52 210.022 560.107 212.005 558.023 214.524 556.297 217.273 554.417 219.602 553.693 222.069 552.926 223.924 552.39 225.737 551.722 227.496 550.928ZM196.067 560.425C198.038 558.654 199.878 556.742 201.573 554.705 203.314 552.678 204.816 550.927 207.275 549.245 209.516 547.769 211.983 546.67 214.578 545.992 215.382 545.742 216.222 545.475 217.11 545.161 218.124 545.336 219.12 545.598 220.089 545.944 218.467 546.631 216.806 547.225 215.116 547.722 212.752 548.457 210.71 549.092 208.298 550.743 206.036 552.291 204.605 553.958 202.948 555.888 200.815 558.465 198.449 560.838 195.879 562.979 195.881 562.124 195.944 561.271 196.067 560.425ZM193.98 583.189C193.582 582.792 193.475 580.517 197.182 574.767 198.604 576.798 200.379 578.558 202.424 579.963 197.748 582.951 194.686 583.895 193.98 583.189Z" fill="#FFFFFF"/></g></svg>