<svg width="220" height="220" xmlns="http://www.w3.org/2000/svg" xmlns:xlink="http://www.w3.org/1999/xlink" xml:space="preserve" overflow="hidden"><g transform="translate(-433 -108)"><path d="M542.952 130.917C494.882 130.915 455.913 169.882 455.912 217.952 455.911 266.021 494.878 304.99 542.947 304.992 591.017 304.993 629.986 266.026 629.987 217.956 629.987 217.953 629.987 217.95 629.987 217.947 630.006 169.901 591.072 130.936 543.025 130.917 543.001 130.917 542.976 130.917 542.952 130.917ZM551.958 264.924C550.989 267.191 549.183 268.996 546.916 269.966 545.751 270.462 544.496 270.715 543.229 270.708 540.7 270.713 538.272 269.713 536.48 267.929 535.616 267.063 534.924 266.04 534.443 264.915 533.944 263.748 533.691 262.492 533.698 261.223 533.692 258.692 534.693 256.263 536.48 254.472 540.186 250.757 546.202 250.749 549.917 254.454 549.923 254.46 549.929 254.466 549.935 254.472L549.935 254.472C550.804 255.344 551.496 256.377 551.972 257.513 552.468 258.687 552.722 259.949 552.717 261.223 552.72 262.494 552.461 263.752 551.958 264.92ZM560.05 224.682C553.79 228.457 549.924 235.198 549.827 242.507L536.077 242.507C536.159 230.467 542.456 219.324 552.728 213.043 561.339 207.645 563.944 196.289 558.546 187.677 553.148 179.066 541.791 176.461 533.18 181.859 527.809 185.226 524.549 191.121 524.552 197.46L510.802 197.46C510.795 179.703 525.185 165.302 542.942 165.296 560.699 165.289 575.1 179.678 575.106 197.436 575.11 208.502 569.423 218.793 560.05 224.678Z" fill="#FFFFFF"/></g></svg>